<?xml version="1.0" standalone="no"?>
<!DOCTYPE svg PUBLIC "-//W3C//DTD SVG 20010904//EN"
 "http://www.w3.org/TR/2001/REC-SVG-20010904/DTD/svg10.dtd">
<svg version="1.0" xmlns="http://www.w3.org/2000/svg"
 width="366.000000pt" height="121.000000pt" viewBox="0 0 366.000000 121.000000"
 preserveAspectRatio="xMidYMid meet">
<metadata>
Created by potrace 1.16, written by Peter Selinger 2001-2019
</metadata>
<g transform="translate(0.000000,121.000000) scale(0.100000,-0.100000)"
fill="#000000" stroke="none">
<path d="M759 1048 c-8 -7 -34 -56 -58 -108 -23 -52 -47 -102 -52 -110 -5 -8
-14 -26 -20 -40 -14 -33 -30 -66 -56 -115 -12 -22 -51 -105 -88 -185 -54 -116
-69 -157 -73 -208 -4 -59 -3 -65 23 -92 31 -32 56 -38 73 -17 6 6 20 44 33 82
12 39 40 108 62 155 21 47 52 113 67 146 l28 62 69 -67 c37 -36 78 -73 89 -81
90 -64 204 -154 204 -161 0 -14 64 -69 81 -69 25 0 42 27 35 54 -6 24 -169
186 -187 186 -5 0 -43 28 -85 62 -81 68 -81 63 5 89 50 15 127 81 173 146 26
38 29 51 24 85 -9 56 -27 85 -86 143 l-51 50 -97 3 c-70 2 -101 0 -113 -10z
m179 -17 c44 -22 118 -99 132 -137 16 -41 12 -65 -17 -108 -48 -72 -99 -112
-166 -131 -34 -9 -73 -22 -87 -27 l-25 -10 54 -49 c30 -27 82 -68 115 -91 70
-49 206 -179 206 -196 0 -22 -19 -12 -57 29 -58 63 -64 69 -73 69 -5 0 -20 10
-34 23 -13 12 -34 29 -47 37 -12 8 -32 24 -45 35 -102 89 -128 111 -135 120
-5 6 -20 24 -34 42 l-26 32 28 14 c15 8 45 17 66 21 90 17 164 70 207 151 22
41 3 96 -40 119 -30 16 -41 17 -77 7 -42 -11 -44 -15 -89 -109 -25 -53 -50
-104 -55 -112 -5 -8 -13 -24 -18 -35 -5 -11 -41 -87 -81 -170 -93 -194 -120
-252 -120 -262 0 -15 -20 -78 -30 -93 -8 -12 -14 -10 -38 14 l-30 28 22 71
c22 70 43 115 210 462 45 94 91 189 102 212 16 36 25 44 59 52 62 14 83 13
123 -8z m12 -86 c47 -24 34 -80 -33 -147 -48 -48 -168 -91 -154 -55 3 6 24 54
48 105 37 79 47 94 74 101 16 5 31 10 33 10 2 1 16 -6 32 -14z"/>
<path d="M2125 1016 c-44 -13 -96 -30 -116 -39 -38 -17 -89 -69 -89 -91 0 -8
17 -33 39 -57 36 -41 40 -43 65 -31 14 6 26 17 26 24 0 18 34 39 105 65 l60
21 7 -61 c5 -34 7 -200 5 -368 l-2 -306 30 -26 c21 -19 39 -26 60 -24 l30 2 8
105 c11 137 2 616 -11 658 l-11 32 171 0 171 0 -6 -52 c-4 -38 -23 -88 -66
-172 -34 -65 -61 -123 -61 -129 0 -6 -6 -18 -13 -26 -14 -17 -45 -93 -72 -175
-16 -46 -16 -50 2 -74 32 -43 72 -68 89 -57 9 6 30 53 47 105 l32 94 185 0
184 0 28 -45 c15 -24 34 -58 41 -74 17 -36 84 -98 100 -92 7 2 12 25 12 54 -1
42 -8 60 -46 119 -26 38 -55 83 -65 99 -22 35 -74 142 -74 151 0 19 -98 139
-172 211 -46 44 -82 86 -80 93 2 6 -15 29 -37 51 l-42 39 -227 -1 c-205 0
-235 -3 -307 -23z m554 -32 c17 -14 31 -29 31 -32 0 -4 -100 -6 -222 -4 l-223
3 23 -24 c18 -19 25 -43 33 -118 14 -114 7 -645 -8 -660 -7 -7 -19 0 -36 20
l-25 30 5 243 c6 242 -2 464 -16 487 -14 22 -156 -28 -201 -71 l-38 -36 -27
28 c-22 23 -25 31 -16 48 15 28 64 56 141 80 95 30 87 30 327 31 l221 1 31
-26z m123 -151 c83 -80 142 -162 188 -258 18 -38 53 -101 78 -140 68 -106 103
-173 93 -179 -15 -9 -58 42 -101 119 -22 41 -45 77 -52 82 -7 4 -90 8 -185 8
-94 0 -175 3 -179 8 -4 4 -11 7 -16 7 -9 0 -58 -102 -58 -119 0 -5 -9 -31 -20
-57 l-21 -48 -31 31 -31 32 33 88 c18 48 62 146 98 218 76 154 102 217 102
250 0 41 27 30 102 -42z"/>
<path d="M2766 797 c-3 -17 -32 -84 -64 -148 l-58 -117 87 -7 c88 -6 232 2
227 14 -63 134 -143 264 -177 285 -5 3 -12 -9 -15 -27z m69 -83 c19 -26 35
-54 35 -63 0 -9 9 -27 20 -41 27 -35 25 -47 -11 -54 -38 -7 -124 -6 -160 3
l-26 6 46 97 c25 54 49 98 53 98 4 0 23 -21 43 -46z"/>
<path d="M1466 988 c-2 -7 -9 -29 -16 -48 -7 -19 -17 -53 -24 -76 -6 -23 -16
-47 -22 -55 -6 -8 -28 -45 -49 -84 -54 -99 -57 -105 -90 -155 -32 -50 -84
-191 -85 -230 0 -17 13 -39 38 -63 61 -60 83 -49 102 49 7 34 15 65 19 70 13
19 126 38 201 33 41 -2 112 -4 158 -4 45 0 82 -4 82 -8 0 -5 9 -20 20 -34 11
-14 20 -34 20 -43 0 -23 86 -102 107 -98 38 7 37 33 -6 120 -22 47 -41 88 -41
92 0 8 -69 157 -108 231 -60 117 -236 315 -280 315 -12 0 -24 -6 -26 -12z
m111 -90 c75 -78 156 -191 193 -273 12 -27 33 -75 47 -105 14 -30 42 -92 64
-136 21 -45 39 -89 39 -98 0 -34 -53 23 -90 95 l-35 70 -130 6 c-183 8 -205 8
-254 -7 -34 -10 -48 -10 -63 -1 -21 13 -27 2 -55 -104 -9 -33 -19 -63 -23 -68
-3 -4 -19 6 -34 22 -28 29 -28 30 -16 83 17 70 44 128 129 273 71 119 131 256
131 295 0 35 23 22 97 -52z"/>
<path d="M1547 883 c-2 -5 -12 -31 -21 -58 -9 -28 -29 -74 -44 -102 -77 -147
-94 -177 -108 -191 -20 -20 -11 -26 17 -12 17 10 49 10 145 0 67 -6 147 -9
177 -5 l55 7 -49 105 c-42 91 -137 245 -160 258 -4 3 -10 2 -12 -2z m60 -110
c43 -65 77 -130 97 -185 12 -34 12 -37 -10 -48 -13 -8 -37 -10 -61 -6 -21 4
-74 11 -118 17 -44 6 -81 12 -83 13 -1 2 14 32 33 67 34 61 74 143 88 182 4 9
8 17 11 17 2 0 21 -26 43 -57z"/>
</g>
</svg>
