<?xml version="1.0" standalone="no"?>
<!DOCTYPE svg PUBLIC "-//W3C//DTD SVG 20010904//EN"
 "http://www.w3.org/TR/2001/REC-SVG-20010904/DTD/svg10.dtd">
<svg version="1.0" xmlns="http://www.w3.org/2000/svg"
 width="366.000000pt" height="121.000000pt" viewBox="0 0 366.000000 121.000000"
 preserveAspectRatio="xMidYMid meet">
<metadata>
Created by potrace 1.16, written by Peter Selinger 2001-2019
</metadata>
<g transform="translate(0.000000,121.000000) scale(0.100000,-0.100000)"
fill="#000000" stroke="none">
<path d="M0 605 l0 -605 1830 0 1830 0 0 605 0 605 -1830 0 -1830 0 0 -605z
m938 376 c46 -24 107 -87 121 -124 19 -50 13 -89 -24 -139 -55 -75 -109 -106
-227 -132 -16 -4 -28 -10 -28 -15 0 -12 81 -83 159 -140 73 -52 188 -157 203
-184 20 -39 -6 -30 -46 15 -22 25 -71 69 -108 96 -103 76 -222 179 -257 222
l-31 39 27 14 c16 8 45 17 66 21 90 17 164 70 207 151 22 41 3 96 -41 119 -32
17 -39 18 -80 5 l-44 -14 -101 -205 c-149 -300 -221 -459 -235 -513 -12 -51
-26 -58 -54 -27 -35 39 -13 96 222 577 56 117 103 217 103 221 0 10 68 29 108
31 12 0 39 -8 60 -18z m1740 -53 l31 -33 -222 3 c-219 3 -221 3 -204 -16 29
-32 40 -179 35 -490 -3 -155 -8 -286 -12 -290 -4 -4 -18 5 -31 20 l-23 27 5
243 c6 247 -2 463 -17 489 -14 21 -170 -33 -210 -73 -26 -25 -33 -28 -46 -17
-34 28 -36 48 -7 75 34 32 74 50 167 74 58 16 110 19 287 19 l215 1 32 -32z
m-1106 -75 c84 -87 148 -181 209 -311 27 -58 49 -107 49 -109 0 -3 21 -48 46
-100 25 -52 43 -98 39 -101 -11 -11 -56 44 -89 109 l-33 64 -51 -3 c-28 -2
-100 1 -160 8 -95 10 -116 9 -160 -5 -38 -13 -55 -14 -70 -6 -12 6 -23 11 -25
11 -6 0 -34 -78 -48 -133 -13 -52 -22 -55 -51 -16 -17 23 -18 31 -7 75 16 67
46 128 128 269 71 119 131 256 131 295 0 34 23 23 92 -47z m1231 -72 c73 -70
134 -155 177 -246 18 -38 57 -107 86 -153 64 -98 98 -162 90 -170 -12 -11 -57
43 -96 114 -22 40 -45 76 -52 81 -7 4 -90 8 -185 9 -120 0 -176 4 -187 13 -19
16 -33 -6 -76 -122 -18 -48 -38 -86 -43 -84 -6 2 -19 14 -29 28 -19 25 -18 26
16 114 19 50 62 146 96 215 75 151 100 212 100 246 0 22 3 24 23 19 12 -4 48
-32 80 -64z"/>
<path d="M1517 772 c-15 -42 -56 -128 -92 -191 -36 -63 -63 -116 -61 -119 2
-2 14 2 27 8 17 10 49 10 145 0 67 -6 147 -9 177 -5 l55 7 -49 105 c-44 94
-133 237 -163 262 -8 7 -19 -11 -39 -67z"/>
<path d="M2756 753 c-3 -21 -31 -89 -61 -152 -30 -63 -53 -116 -50 -119 7 -8
302 -9 309 -1 9 9 -74 170 -120 229 -63 84 -70 88 -78 43z"/>
</g>
</svg>
